<svg width="49" height="49" viewBox="0 0 49 49" fill="none" xmlns="http://www.w3.org/2000/svg">
<g id="Icon" clip-path="url(#clip0_814_209)">
<path id="Vector" d="M48.625 47.3809C48.4375 39.7871 40.75 33.2246 30.25 31.5371V27.5996C31.5625 26.2871 32.5938 24.2246 33.25 22.4434C34.1875 21.9746 35.0312 20.9434 35.5 19.5371C36.1562 17.5684 35.875 15.7871 34.9375 14.9434C34.9375 14.2871 35.0312 13.5371 34.9375 12.8809C34.75 11.0059 35.125 9.97461 35.5 9.03711C35.7812 8.28711 36.1562 7.34961 35.7812 6.31836C34.5625 2.75586 30.9062 0.787109 25.5625 0.787109H24.8125C21.1562 0.974609 20.0312 2.47461 19.2812 3.97461C19.1875 4.16211 19 4.34961 19 4.34961C14.2188 4.81836 14.2188 8.84961 14.3125 12.0371V13.0684C14.3125 13.6309 14.3125 14.2871 14.4062 14.8496C13.1875 15.6934 12.9062 17.6621 13.8438 19.7246C14.4062 20.9434 15.1562 21.7871 16 22.2559C16.6562 24.2246 17.7812 26.4746 19.2812 27.8809V31.4434C8.59375 33.1309 0.8125 39.6934 0.625 47.3809V48.7871H48.625V47.3809ZM3.625 45.9746C4.75 40.0684 11.6875 35.1934 20.875 34.0684L22.0938 33.9746V26.3809L21.5312 26.0059C20.4062 25.2559 19.2812 23.2871 18.4375 20.7559L18.25 20.0059L17.4062 19.8184C17.2188 19.8184 16.75 19.4434 16.4688 18.5996C16.2812 18.1309 16.1875 17.7559 16.0938 17.4746L17.5938 17.8496L17.3125 15.7871C17.2188 14.8496 17.125 13.9121 17.125 13.0684V11.9434C17.0312 8.19336 17.2188 7.34961 19.2812 7.16211C20.875 7.06836 21.4375 5.94336 21.8125 5.28711C22.1875 4.44336 22.5625 3.69336 24.9062 3.59961H25.5625C27.9062 3.59961 32.0312 4.06836 33.0625 7.25586C33.0625 7.34961 32.9688 7.72461 32.875 8.00586C32.4062 9.03711 31.8438 10.6309 32.125 13.2559C32.2188 13.7246 32.125 14.4746 32.0312 15.1309L31.75 17.3809L33.0625 17.2871C33.0625 17.5684 32.9688 18.0371 32.7812 18.5996C32.5 19.4434 32.125 19.8184 32.125 19.9121H31.0938L30.8125 20.8496C29.9688 23.2871 28.9375 25.0684 27.9062 25.8184L27.3438 26.2871V33.9746L28.6562 34.1621C37.6562 35.2871 44.5938 40.1621 45.625 45.9746H3.625Z" fill="#0D6A60"/>
</g>
<defs>
<clipPath id="clip0_814_209">
<rect width="48" height="48" fill="white" transform="matrix(1 0 0 -1 0.625 48.7871)"/>
</clipPath>
</defs>
</svg>
