<svg width="49" height="49" viewBox="0 0 49 49" fill="none" xmlns="http://www.w3.org/2000/svg">
<g id="Icon" clip-path="url(#clip0_814_202)">
<path id="Vector" d="M46.8438 5.53711L42.9062 1.50586C41.3125 -0.0878906 38.5 -0.0878906 36.9062 1.50586L15.625 22.7871L10.75 37.6934L25.5625 32.7246L46.8438 11.4434C47.5938 10.6934 48.0625 9.66211 48.0625 8.44336C48.0625 7.31836 47.5938 6.28711 46.8438 5.53711ZM16 30.6621L17.7812 25.1309L23.2188 30.5684L17.7812 32.4434L16 30.6621ZM19.5625 22.8809L30.8125 11.6309L36.7188 17.5371L25.4688 28.7871L19.5625 22.8809ZM32.7812 9.56836L34.8438 7.59961L40.8438 13.5059L38.7812 15.5684L32.7812 9.56836ZM44.875 9.47461L42.8125 11.5371L36.8125 5.53711L38.875 3.56836C39.4375 3.00586 40.375 3.00586 40.8438 3.56836L44.875 7.50586C45.0625 7.78711 45.25 8.06836 45.25 8.44336C45.25 8.81836 45.0625 9.19336 44.875 9.47461ZM42.625 21.4746H45.4375V48.2871H0.25V5.91211H21.4375V8.72461H3.0625V45.4746H42.625V21.4746Z" fill="#0D6A60"/>
</g>
<defs>
<clipPath id="clip0_814_202">
<rect width="48" height="48" fill="white" transform="matrix(1 0 0 -1 0.25 48.2871)"/>
</clipPath>
</defs>
</svg>
