<svg width="49" height="49" viewBox="0 0 49 49" fill="none" xmlns="http://www.w3.org/2000/svg">
<g id="Icon" clip-path="url(#clip0_814_194)">
<path id="Vector" d="M24.5 0.287109C11.2812 0.287109 0.5 11.0684 0.5 24.2871C0.5 37.5059 11.2812 48.2871 24.5 48.2871C37.8125 48.2871 48.5 37.5059 48.5 24.2871C48.5 11.0684 37.8125 0.287109 24.5 0.287109ZM3.40625 25.6934H11.75C11.8438 28.5996 12.3125 31.4121 13.1562 34.1309H5.84375C4.4375 31.5996 3.59375 28.6934 3.40625 25.6934ZM11.75 22.8809H3.40625C3.59375 19.8809 4.4375 16.9746 5.84375 14.4434H13.1562C12.3125 17.1621 11.8438 19.9746 11.75 22.8809ZM16.1562 14.4434H32.8438C33.7812 17.1621 34.25 19.9746 34.4375 22.8809H14.5625C14.6562 19.9746 15.2188 17.1621 16.1562 14.4434ZM14.5625 25.6934H34.4375C34.25 28.5996 33.7812 31.4121 32.8438 34.1309H16.1562C15.2188 31.4121 14.6562 28.5996 14.5625 25.6934ZM37.25 25.6934H45.6875C45.4062 28.6934 44.6562 31.5996 43.25 34.1309H35.75C36.6875 31.4121 37.1562 28.5996 37.25 25.6934ZM37.25 22.8809C37.1562 19.9746 36.6875 17.1621 35.8438 14.4434H43.25C44.6562 16.9746 45.4062 19.8809 45.6875 22.8809H37.25ZM41.4688 11.5371H34.8125C33.6875 8.91211 32.1875 6.38086 30.4062 3.94336C34.9062 5.25586 38.75 7.97461 41.4688 11.5371ZM26.0938 3.19336C28.4375 5.72461 30.3125 8.53711 31.7188 11.5371H17.2812C18.6875 8.53711 20.5625 5.72461 22.8125 3.19336C23.375 3.19336 23.9375 3.09961 24.5 3.09961C25.0625 3.09961 25.625 3.19336 26.0938 3.19336ZM18.5 4.03711C16.7188 6.38086 15.3125 8.91211 14.1875 11.5371H7.625C10.3438 7.97461 14.0938 5.25586 18.5 4.03711ZM7.625 37.0371H14.1875C15.3125 39.6621 16.8125 42.1934 18.5938 44.6309C14.1875 43.3184 10.3438 40.5996 7.625 37.0371ZM22.9062 45.3809C20.5625 42.8496 18.6875 40.0371 17.2812 37.0371H31.7188C30.3125 40.0371 28.4375 42.8496 26.0938 45.3809C25.625 45.3809 25.0625 45.4746 24.5 45.4746C23.9375 45.4746 23.4688 45.3809 22.9062 45.3809ZM30.4062 44.6309C32.1875 42.2871 33.6875 39.6621 34.8125 37.0371H41.4688C38.75 40.5996 34.9062 43.3184 30.4062 44.6309Z" fill="#0D6A60"/>
</g>
<defs>
<clipPath id="clip0_814_194">
<rect width="48" height="48" fill="white" transform="matrix(1 0 0 -1 0.5 48.2871)"/>
</clipPath>
</defs>
</svg>
