<svg width="49" height="49" viewBox="0 0 49 49" fill="none" xmlns="http://www.w3.org/2000/svg">
<g id="Icon" clip-path="url(#clip0_814_186)">
<path id="Vector" d="M19.1862 0.287109C9.07959 0.287109 0.75 7.69336 0.75 16.7871C0.75 23.4434 3.97077 27.0996 6.85837 30.3809C8.96853 32.8184 10.8566 34.9746 10.8566 37.9746V43.8809C10.8566 46.3184 13.0778 48.2871 15.8543 48.2871H22.518C25.2945 48.2871 27.5157 46.3184 27.5157 43.8809V37.8809C27.5157 34.8809 29.2927 33.0059 31.5139 30.4746C34.1794 27.3809 37.6223 23.6309 37.6223 16.7871C37.6223 7.69336 29.2927 0.287109 19.1862 0.287109ZM22.518 45.4746H15.8543C14.9658 45.4746 14.1884 44.7246 14.1884 43.8809V39.2871H24.1839V43.8809C24.1839 44.7246 23.4065 45.4746 22.518 45.4746ZM28.7374 28.7871C26.8494 31.0371 24.8503 33.2871 24.295 36.4746H14.0773C13.522 33.2871 11.5229 30.9434 9.52383 28.6934C6.85837 25.6934 4.08184 22.5059 4.08184 16.7871C4.08184 9.19336 10.8566 3.09961 19.1862 3.09961C27.5157 3.09961 34.2905 9.19336 34.2905 16.7871C34.2905 22.5996 31.5139 25.7871 28.7374 28.7871Z" fill="#0D6A60"/>
</g>
<defs>
<clipPath id="clip0_814_186">
<rect width="48" height="48" fill="white" transform="matrix(1 0 0 -1 0.75 48.2871)"/>
</clipPath>
</defs>
</svg>
