<svg width="46" height="46" viewBox="0 0 46 46" fill="none" xmlns="http://www.w3.org/2000/svg">
<g id="Icon" clip-path="url(#clip0_806_2875)">
<path id="Vector" d="M43.966 19.5375L44.8182 19.367V34.4522C44.8182 35.6454 44.3921 36.6681 43.5398 37.5204C42.6876 38.3727 41.6648 38.7988 40.4717 38.7988H34.0796L33.2273 45.3613H31.8637L32.8012 37.4352H40.4717C41.2671 37.4352 41.9631 37.1369 42.5597 36.5403C43.1563 35.9437 43.4546 35.2477 43.4546 34.4522V21.0716C42.3751 21.2988 41.4376 21.5261 40.6421 21.7534C38.9944 22.2647 38.1705 23.117 38.1705 24.3102V33.7704H31.0967C30.8126 33.7704 30.5569 33.8841 30.3296 34.1113C30.1023 34.3386 29.9887 34.5943 29.9887 34.8784V45.3613H28.6251V34.8784C28.6251 34.4238 28.7387 33.9977 28.966 33.6C29.1932 33.2022 29.4915 32.8897 29.8609 32.6625C30.2302 32.4352 30.6421 32.3216 31.0967 32.3216H36.8069V24.3102C36.8069 22.4352 37.9717 21.1568 40.3012 20.475C41.3807 20.1341 42.6023 19.8216 43.966 19.5375ZM40.8126 8.79883C41.2671 8.79883 41.6932 8.85564 42.091 8.96928C42.4887 9.08292 42.858 9.26758 43.1989 9.52326C43.5398 9.77894 43.8239 10.0772 44.0512 10.4181C44.2785 10.7591 44.4631 11.1284 44.6052 11.5261C44.7472 11.9238 44.8182 12.3216 44.8182 12.7193V15.1056C44.8182 16.2988 44.4063 17.3074 43.5825 18.1312C42.7586 18.9551 41.7785 19.367 40.6421 19.367H36.8069V17.0659H34.9319L36.8069 12.6341C36.8637 11.5545 37.2756 10.6454 38.0427 9.90678C38.8097 9.16814 39.733 8.79883 40.8126 8.79883ZM43.4546 15.1056V12.7193C43.4546 12.0375 43.1989 11.4409 42.6876 10.9295C42.1762 10.4181 41.5512 10.1625 40.8126 10.1625C40.0739 10.1625 39.4489 10.4181 38.9376 10.9295C38.4262 11.4409 38.1705 12.0375 38.1705 12.7193V12.8897L36.9773 15.617H38.1705V17.9181H40.6421C41.4376 17.9181 42.1052 17.6483 42.645 17.1085C43.1847 16.5687 43.4546 15.9011 43.4546 15.1056ZM14.9035 32.3216C15.5853 32.3216 16.1677 32.5772 16.6506 33.0886C17.1336 33.6 17.3751 34.1966 17.3751 34.8784V45.3613H16.0114V34.8784C16.0114 34.5943 15.8978 34.3386 15.6705 34.1113C15.4432 33.8841 15.1876 33.7704 14.9035 33.7704H7.82961V24.3102C7.82961 23.117 7.00575 22.2647 5.35802 21.7534C4.56257 21.5261 3.62507 21.2988 2.54552 21.0716V34.4522C2.54552 35.2477 2.84382 35.9437 3.44041 36.5403C4.037 37.1369 4.73302 37.4352 5.52848 37.4352H13.1989L14.1364 45.3613H12.7728L11.9205 38.7988H5.52848C4.33529 38.7988 3.31257 38.3727 2.46029 37.5204C1.60802 36.6681 1.18188 35.6454 1.18188 34.4522V19.367L2.03416 19.5375C3.39779 19.8216 4.61938 20.1341 5.69893 20.475C8.02848 21.1568 9.19325 22.4352 9.19325 24.3102V32.3216H14.9035ZM9.19325 12.6341L11.0682 17.0659H9.19325V19.367H5.35802C4.22166 19.367 3.24154 18.9551 2.41768 18.1312C1.59382 17.3074 1.18188 16.2988 1.18188 15.1056V12.7193C1.18188 11.6397 1.56541 10.7164 2.33245 9.94939C3.0995 9.18235 4.0512 8.79883 5.18757 8.79883C5.86938 8.79883 6.52279 8.96928 7.14779 9.31019C7.77279 9.6511 8.25575 10.1056 8.59666 10.6738C8.93757 11.242 9.13643 11.8954 9.19325 12.6341ZM7.82961 15.617H9.02279L7.82961 12.8897V12.7193C7.82961 12.0375 7.57393 11.4409 7.06257 10.9295C6.5512 10.4181 5.9262 10.1625 5.18757 10.1625C4.44893 10.1625 3.82393 10.4181 3.31257 10.9295C2.8012 11.4409 2.54552 12.0375 2.54552 12.7193V15.1056C2.54552 15.9011 2.81541 16.5687 3.35518 17.1085C3.89495 17.6483 4.56257 17.9181 5.35802 17.9181H7.82961V15.617ZM11.4944 25.4181H34.5057V29.5091H25.3012V45.3613H23.9376V29.5091H22.5739V45.3613H21.2103V29.5091H11.4944V25.4181ZM33.1421 28.1454V26.7818H12.858V28.1454H33.1421ZM32.2898 9.56587L35.6989 13.6568H32.2898V16.6397H16.2671V6.07156H27.091V3.77042H13.7955V6.41246L11.9205 8.62837H13.7955V11.6113H15.2444V12.975H12.4319V9.99201H9.02279L12.4319 5.9011V2.40678H28.4546V6.07156H32.2898V9.56587ZM30.9262 12.2931H32.716L30.9262 10.0772V7.43519H17.6307V11.6113H27.091V8.37269H28.4546V12.975H17.6307V15.2761H30.9262V12.2931ZM18.483 21.7534V20.3897H19.8467V21.7534H18.483ZM22.3182 21.7534V20.3897H23.6819V21.7534H22.3182ZM26.1535 21.7534V20.3897H27.5171V21.7534H26.1535Z" fill="white"/>
</g>
<defs>
<clipPath id="clip0_806_2875">
<rect width="45" height="45" fill="white" transform="matrix(1 0 0 -1 0.5 45.7874)"/>
</clipPath>
</defs>
</svg>
