<svg width="46" height="46" viewBox="0 0 46 46" fill="none" xmlns="http://www.w3.org/2000/svg">
<g id="Icon" clip-path="url(#clip0_806_2918)">
<path id="Vector" d="M40.7271 23.2021C41.4657 23.2021 42.1049 23.472 42.6447 24.0117C43.1845 24.5515 43.4544 25.1907 43.4544 25.9294V42.293C43.4544 43.0316 43.1845 43.6708 42.6447 44.2106C42.1049 44.7504 41.4657 45.0203 40.7271 45.0203H3.90891C3.17028 45.0203 2.53107 44.7504 1.9913 44.2106C1.45153 43.6708 1.18164 43.0316 1.18164 42.293V25.9294C1.18164 25.1907 1.45153 24.5515 1.9913 24.0117C2.53107 23.472 3.17028 23.2021 3.90891 23.2021H28.4544V20.4748C28.4544 19.3953 28.7385 18.4294 29.3066 17.5771C29.8748 16.7248 30.6135 16.0714 31.5226 15.6169C30.3862 14.7646 29.818 13.6566 29.818 12.293C29.818 11.1566 30.2157 10.1907 31.0112 9.39526C31.8066 8.59981 32.7726 8.20208 33.9089 8.20208C35.0453 8.20208 36.0112 8.59981 36.8066 9.39526C37.6021 10.1907 37.9998 11.1566 37.9998 12.293C37.9998 13.6566 37.4316 14.7646 36.2953 15.6169C37.2044 16.0714 37.943 16.7248 38.5112 17.5771C39.0794 18.4294 39.3635 19.3953 39.3635 20.4748V23.2021H40.7271ZM31.9913 10.3754C31.9913 10.3754 31.8564 10.5103 31.5865 10.7802C31.3166 11.0501 31.1816 11.5544 31.1816 12.293C31.1816 13.0316 31.4515 13.6708 31.9913 14.2106C32.5311 14.7504 33.1703 15.0203 33.9089 15.0203C34.6475 15.0203 35.2868 14.7504 35.8265 14.2106C36.3663 13.6708 36.6362 13.0316 36.6362 12.293C36.6362 11.5544 36.3663 10.9151 35.8265 10.3754C35.2868 9.83561 34.6475 9.56572 33.9089 9.56572C33.1703 9.56572 32.5311 9.83561 31.9913 10.3754ZM29.818 20.4748V23.2021H37.9998V20.4748C37.9998 19.3384 37.6021 18.3725 36.8066 17.5771C36.0112 16.7816 35.0453 16.3839 33.9089 16.3839C32.7726 16.3839 31.8066 16.7816 31.0112 17.5771C30.2157 18.3725 29.818 19.3384 29.818 20.4748ZM42.0907 42.293V25.9294C42.0907 25.5316 41.9629 25.2049 41.7072 24.9492C41.4515 24.6936 41.1248 24.5657 40.7271 24.5657H38.6816H29.1362H3.90891C3.51119 24.5657 3.18448 24.6936 2.9288 24.9492C2.67312 25.2049 2.54528 25.5316 2.54528 25.9294V42.293C2.54528 42.6907 2.67312 43.0174 2.9288 43.2731C3.18448 43.5288 3.51119 43.6566 3.90891 43.6566H40.7271C41.1248 43.6566 41.4515 43.5288 41.7072 43.2731C41.9629 43.0174 42.0907 42.6907 42.0907 42.293ZM34.5907 25.9294C35.1589 25.9294 35.6419 26.1282 36.0396 26.5259C36.4373 26.9237 36.6362 27.4066 36.6362 27.9748V40.2475C36.6362 40.8157 36.4373 41.2987 36.0396 41.6964C35.6419 42.0941 35.1589 42.293 34.5907 42.293H5.95437C5.38619 42.293 4.90323 42.0941 4.5055 41.6964C4.10778 41.2987 3.90891 40.8157 3.90891 40.2475V27.9748C3.90891 27.4066 4.10778 26.9237 4.5055 26.5259C4.90323 26.1282 5.38619 25.9294 5.95437 25.9294H34.5907ZM35.2725 40.2475V27.9748C35.2725 27.5203 35.0453 27.293 34.5907 27.293H5.95437C5.49982 27.293 5.27255 27.5203 5.27255 27.9748V40.2475C5.27255 40.7021 5.49982 40.9294 5.95437 40.9294H34.5907C35.0453 40.9294 35.2725 40.7021 35.2725 40.2475ZM38.3833 35.0913C38.3833 35.0913 38.3194 35.0274 38.1916 34.8995C38.0637 34.7717 37.9998 34.5089 37.9998 34.1112C37.9998 33.7134 38.1277 33.3867 38.3833 33.1311C38.639 32.8754 38.9657 32.7475 39.3635 32.7475C39.7612 32.7475 40.0879 32.8754 40.3436 33.1311C40.5993 33.3867 40.7271 33.7134 40.7271 34.1112C40.7271 34.5089 40.5993 34.8356 40.3436 35.0913C40.0879 35.347 39.7612 35.4748 39.3635 35.4748C38.9657 35.4748 38.639 35.347 38.3833 35.0913ZM7.318 17.7475C6.74982 17.7475 6.26687 17.5487 5.86914 17.1509C5.47141 16.7532 5.27255 16.2703 5.27255 15.7021V4.79299C5.27255 4.22481 5.47141 3.74186 5.86914 3.34413C6.26687 2.9464 6.74982 2.74754 7.318 2.74754H22.318C22.8862 2.74754 23.3691 2.9464 23.7669 3.34413C24.1646 3.74186 24.3635 4.22481 24.3635 4.79299V9.31004L28.2839 13.1453C28.4544 13.3725 28.4828 13.6282 28.3691 13.9123C28.2555 14.1964 28.0566 14.3384 27.7726 14.3384H24.3635V15.7021C24.3635 16.2703 24.1646 16.7532 23.7669 17.1509C23.3691 17.5487 22.8862 17.7475 22.318 17.7475H7.318ZM6.63619 4.79299V15.7021C6.63619 16.1566 6.86346 16.3839 7.318 16.3839H22.318C22.7726 16.3839 22.9998 16.1566 22.9998 15.7021V13.6566C22.9998 13.2021 23.2271 12.9748 23.6816 12.9748H26.1532L23.1703 10.0771C23.0566 9.90663 22.9998 9.73617 22.9998 9.56572V4.79299C22.9998 4.33844 22.7726 4.11117 22.318 4.11117H7.318C6.86346 4.11117 6.63619 4.33844 6.63619 4.79299ZM8.68164 9.56572C8.2271 9.56572 7.99982 9.33844 7.99982 8.8839V6.15663C7.99982 5.70208 8.2271 5.47481 8.68164 5.47481H20.9544C21.4089 5.47481 21.6362 5.70208 21.6362 6.15663V8.8839C21.6362 9.33844 21.4089 9.56572 20.9544 9.56572H8.68164ZM9.36346 6.83844V8.20208H20.2726V6.83844H9.36346ZM7.99982 12.293V10.9294H14.818V12.293H7.99982ZM7.99982 15.0203V13.6566H21.6362V15.0203H7.99982ZM8.2555 30.2759C8.2555 30.2759 8.52539 30.0061 9.06516 29.4663C9.60494 28.9265 10.6135 28.6566 12.0907 28.6566C13.568 28.6566 14.8464 29.1964 15.926 30.2759C17.0055 31.3555 17.5453 32.6339 17.5453 34.1112C17.5453 35.5884 17.0055 36.8669 15.926 37.9464C14.8464 39.0259 13.568 39.5657 12.0907 39.5657C10.6135 39.5657 9.33505 39.0259 8.2555 37.9464C7.17596 36.8669 6.63619 35.5884 6.63619 34.1112C6.63619 32.6339 7.17596 31.3555 8.2555 30.2759ZM7.99982 34.1112C7.99982 35.2475 8.39755 36.2134 9.193 37.0089C9.98846 37.8044 10.9544 38.2021 12.0907 38.2021C12.943 38.2021 13.7385 37.9464 14.4771 37.435L11.5794 34.6225C11.4657 34.4521 11.4089 34.2816 11.4089 34.1112V30.1055C10.443 30.2759 9.63335 30.7305 8.97994 31.4691C8.32653 32.2078 7.99982 33.0884 7.99982 34.1112ZM15.4146 36.4975C15.926 35.7589 16.1816 34.9634 16.1816 34.1112C16.1816 33.0884 15.8549 32.2078 15.2015 31.4691C14.5481 30.7305 13.7385 30.2759 12.7725 30.1055V33.8555L15.4146 36.4975ZM32.5453 36.1566V38.2021H33.9089V39.5657H31.8635H29.1362H26.4089H23.6816H20.9544H18.9089V38.2021H20.2726V29.3384C20.2726 28.8839 20.4998 28.6566 20.9544 28.6566H23.6816C24.1362 28.6566 24.3635 28.8839 24.3635 29.3384V31.3839H26.4089C26.8635 31.3839 27.0907 31.6112 27.0907 32.0657V34.1112H29.1362C29.5907 34.1112 29.818 34.3384 29.818 34.793V35.4748H31.8635C32.318 35.4748 32.5453 35.7021 32.5453 36.1566ZM21.6362 30.0203V38.2021H22.9998V32.0657V30.0203H21.6362ZM24.3635 32.7475V38.2021H25.7271V34.793V32.7475H24.3635ZM27.0907 35.4748V38.2021H28.4544V36.1566V35.4748H27.0907ZM29.818 38.2021H31.1816V36.8384H29.818V38.2021Z" fill="white"/>
</g>
<defs>
<clipPath id="clip0_806_2918">
<rect width="45" height="45" fill="white" transform="matrix(1 0 0 -1 0.5 45.7874)"/>
</clipPath>
</defs>
</svg>
