<svg width="46" height="46" viewBox="0 0 46 46" fill="none" xmlns="http://www.w3.org/2000/svg">
<g id="Icon" clip-path="url(#clip0_806_2903)">
<path id="Vector" d="M2.71598 22.4351C2.26143 22.4351 1.89211 22.2931 1.60802 22.009C1.32393 21.7249 1.18188 21.384 1.18188 20.9862V3.59988C1.18188 3.14533 1.32393 2.77601 1.60802 2.49192C1.89211 2.20783 2.26143 2.06578 2.71598 2.06578H16.7785C17.1762 2.06578 17.5171 2.20783 17.8012 2.49192C18.0853 2.77601 18.2273 3.14533 18.2273 3.59988V11.0999C18.2273 11.5544 18.0001 11.7817 17.5455 11.7817C17.091 11.7817 16.8637 11.5544 16.8637 11.0999V3.59988C16.8637 3.48624 16.8353 3.42942 16.7785 3.42942H2.71598C2.60234 3.42942 2.54552 3.48624 2.54552 3.59988V20.9862C2.54552 21.0431 2.60234 21.0715 2.71598 21.0715H7.82961C8.1137 21.0715 8.31257 21.1851 8.4262 21.4124L9.70461 23.9692L10.983 21.4124C11.0967 21.1851 11.2955 21.0715 11.5796 21.0715H12.3467C12.858 21.0715 13.1137 21.2987 13.1137 21.7533C13.1137 22.2078 12.858 22.4351 12.3467 22.4351H12.0057L10.3012 25.8442C10.1876 26.0715 9.9887 26.1851 9.70461 26.1851C9.42052 26.1851 9.22166 26.0715 9.10802 25.8442L7.40348 22.4351H2.71598ZM7.23302 5.90101C7.23302 5.90101 7.40348 5.73056 7.74438 5.38965C8.08529 5.04874 8.7387 4.87828 9.70461 4.87828C10.6705 4.87828 11.4944 5.21919 12.1762 5.90101C12.858 6.58283 13.1989 7.39249 13.1989 8.32999C13.1989 9.26749 12.858 10.0771 12.1762 10.759C11.4944 11.4408 10.6705 11.7817 9.70461 11.7817C8.7387 11.7817 7.91484 11.4408 7.23302 10.759C6.5512 10.0771 6.21029 9.26749 6.21029 8.32999C6.21029 7.39249 6.5512 6.58283 7.23302 5.90101ZM8.25575 9.82146C8.25575 9.82146 8.35518 9.9209 8.55404 10.1198C8.75291 10.3186 9.13643 10.4181 9.70461 10.4181C10.2728 10.4181 10.77 10.2192 11.1961 9.82146C11.6222 9.42374 11.8353 8.92658 11.8353 8.32999C11.8353 7.7334 11.6222 7.23624 11.1961 6.83851C10.77 6.44078 10.2728 6.24192 9.70461 6.24192C9.13643 6.24192 8.65348 6.44078 8.25575 6.83851C7.85802 7.23624 7.65916 7.7334 7.65916 8.32999C7.65916 8.92658 7.85802 9.42374 8.25575 9.82146ZM9.70461 14.5942C9.02279 14.5942 8.36938 14.7504 7.74438 15.0629C7.11938 15.3754 6.60802 15.8158 6.21029 16.384C5.81257 16.9521 5.55688 17.5771 5.44325 18.259H12.3467C12.858 18.259 13.1137 18.4862 13.1137 18.9408C13.1137 19.3953 12.858 19.6226 12.3467 19.6226H4.6762C4.22166 19.6226 3.99438 19.3953 3.99438 18.9408C3.99438 17.3499 4.54836 16.0004 5.65632 14.8925C6.76427 13.7845 8.1137 13.2306 9.70461 13.2306C10.7842 13.2306 11.8069 13.5146 12.7728 14.0828C13.1705 14.3101 13.2415 14.6226 12.9859 15.0203C12.7302 15.4181 12.4035 15.5033 12.0057 15.276C11.3239 14.8215 10.5569 14.5942 9.70461 14.5942ZM43.2842 2.06578C43.5682 2.06578 43.8239 2.13681 44.0512 2.27885C44.2785 2.4209 44.4631 2.60556 44.6052 2.83283C44.7472 3.0601 44.8182 3.31578 44.8182 3.59988V20.9862C44.8182 21.2135 44.7472 21.4408 44.6052 21.6681C44.4631 21.8953 44.2785 22.08 44.0512 22.222C43.8239 22.3641 43.5682 22.4351 43.2842 22.4351H38.5967L36.8921 25.8442C36.7785 26.0715 36.5796 26.1851 36.2955 26.1851C36.0114 26.1851 35.8126 26.0715 35.6989 25.8442L33.9944 22.4351H33.6535C33.1421 22.4351 32.8864 22.2078 32.8864 21.7533C32.8864 21.2987 33.1421 21.0715 33.6535 21.0715H34.4205C34.7046 21.0715 34.9035 21.1851 35.0171 21.4124L36.2955 23.9692L37.5739 21.4124C37.6876 21.1851 37.8864 21.0715 38.1705 21.0715H43.2842C43.3978 21.0715 43.4546 21.0431 43.4546 20.9862V3.59988C43.4546 3.48624 43.3978 3.42942 43.2842 3.42942H29.2217C29.1648 3.42942 29.1364 3.48624 29.1364 3.59988V11.0999C29.1364 11.5544 28.9092 11.7817 28.4546 11.7817C28.0001 11.7817 27.7728 11.5544 27.7728 11.0999V3.59988C27.7728 3.31578 27.8296 3.0601 27.9432 2.83283C28.0569 2.60556 28.2415 2.4209 28.4972 2.27885C28.7529 2.13681 28.9944 2.06578 29.2217 2.06578H43.2842ZM36.2955 4.87828C36.7501 4.87828 37.1904 4.96351 37.6165 5.13396C38.0427 5.30442 38.412 5.5459 38.7245 5.8584C39.037 6.1709 39.2927 6.54021 39.4915 6.96635C39.6904 7.39249 39.7898 7.86124 39.7898 8.3726C39.7898 9.28169 39.4489 10.0771 38.7671 10.759C38.0853 11.4408 37.2614 11.7817 36.2955 11.7817C35.3296 11.7817 34.5057 11.4408 33.8239 10.759C33.1421 10.0771 32.8012 9.28169 32.8012 8.3726C32.8012 7.69078 32.9575 7.09419 33.27 6.58283C33.5825 6.07146 34.0086 5.65953 34.5484 5.34703C35.0881 5.03453 35.6705 4.87828 36.2955 4.87828ZM34.804 9.82146C34.804 9.82146 34.9106 9.9209 35.1236 10.1198C35.3367 10.3186 35.7273 10.4181 36.2955 10.4181C36.8637 10.4181 37.3467 10.2192 37.7444 9.82146C38.1421 9.42374 38.341 8.92658 38.341 8.32999C38.341 7.7334 38.1421 7.23624 37.7444 6.83851C37.3467 6.44078 36.8637 6.24192 36.2955 6.24192C35.7273 6.24192 35.2302 6.44078 34.804 6.83851C34.3779 7.23624 34.1648 7.7334 34.1648 8.32999C34.1648 8.92658 34.3779 9.42374 34.804 9.82146ZM33.6535 19.6226C33.1421 19.6226 32.8864 19.3953 32.8864 18.9408C32.8864 18.4862 33.1421 18.259 33.6535 18.259H40.5569C40.5001 17.8612 40.3864 17.4777 40.216 17.1084C40.0455 16.7391 39.8182 16.3982 39.5342 16.0857C39.2501 15.7732 38.9518 15.5033 38.6393 15.276C38.3268 15.0487 37.9575 14.8783 37.5313 14.7646C37.1052 14.651 36.6932 14.5942 36.2955 14.5942C35.4432 14.5942 34.6762 14.8215 33.9944 15.276C33.5967 15.5033 33.27 15.4181 33.0143 15.0203C32.7586 14.6226 32.8296 14.3101 33.2273 14.0828C34.1932 13.5146 35.216 13.2306 36.2955 13.2306C37.8864 13.2306 39.2359 13.7845 40.3438 14.8925C41.4518 16.0004 42.0057 17.3499 42.0057 18.9408C42.0057 19.3953 41.7785 19.6226 41.3239 19.6226H33.6535ZM14.4773 14.6794C14.4773 14.2817 14.6194 13.9408 14.9035 13.6567C15.1876 13.3726 15.5285 13.2306 15.9262 13.2306H30.0739C30.3012 13.2306 30.5285 13.2874 30.7557 13.401C30.983 13.5146 31.1677 13.6851 31.3097 13.9124C31.4518 14.1396 31.5228 14.3953 31.5228 14.6794V32.0658C31.5228 32.2931 31.4802 32.4919 31.395 32.6624C31.3097 32.8328 31.2103 32.9891 31.0967 33.1311C30.983 33.2732 30.8268 33.3868 30.6279 33.472C30.429 33.5573 30.2444 33.5999 30.0739 33.5999H25.3012L23.5967 36.9237C23.483 37.2078 23.2842 37.3499 23.0001 37.3499C22.716 37.3499 22.5171 37.2078 22.4035 36.9237L20.6989 33.5999H15.9262C15.5285 33.5999 15.1876 33.4436 14.9035 33.1311C14.6194 32.8186 14.4773 32.4635 14.4773 32.0658V14.6794ZM30.1592 14.6794C30.1592 14.6226 30.1307 14.5942 30.0739 14.5942H15.9262C15.8694 14.5942 15.841 14.6226 15.841 14.6794V32.0658C15.841 32.1226 15.8694 32.151 15.9262 32.151H21.1251C21.4092 32.151 21.608 32.2931 21.7217 32.5771L23.0001 35.134L24.2785 32.5771C24.3921 32.2931 24.591 32.151 24.8751 32.151H30.0739C30.1307 32.151 30.1592 32.1226 30.1592 32.0658V14.6794ZM25.4717 21.9237C25.4717 21.9237 25.3012 22.0942 24.9603 22.4351C24.6194 22.776 23.966 22.9465 23.0001 22.9465C22.0342 22.9465 21.2103 22.6056 20.5285 21.9237C19.8467 21.2419 19.5057 20.4181 19.5057 19.4521C19.5057 18.4862 19.8467 17.6624 20.5285 16.9806C21.2103 16.2987 22.0342 15.9578 23.0001 15.9578C23.6251 15.9578 24.2075 16.1141 24.7472 16.4266C25.287 16.7391 25.7131 17.1652 26.0256 17.705C26.3381 18.2448 26.4944 18.8271 26.4944 19.4521C26.4944 20.4181 26.1535 21.2419 25.4717 21.9237ZM23.0001 17.4067C22.4319 17.4067 21.9347 17.6056 21.5086 18.0033C21.0825 18.401 20.8694 18.884 20.8694 19.4521C20.8694 20.0203 21.0825 20.5175 21.5086 20.9436C21.9347 21.3698 22.4319 21.5828 23.0001 21.5828C23.3978 21.5828 23.7529 21.4834 24.0654 21.2845C24.3779 21.0857 24.6336 20.83 24.8325 20.5175C25.0313 20.205 25.1307 19.8641 25.1307 19.4948C25.1307 19.1254 25.0313 18.7703 24.8325 18.4294C24.6336 18.0885 24.3779 17.8328 24.0654 17.6624C23.7529 17.4919 23.3978 17.4067 23.0001 17.4067ZM17.9717 30.7874C17.5171 30.7874 17.2898 30.5601 17.2898 30.1056C17.2898 28.5146 17.8438 27.151 18.9518 26.0146C20.0597 24.8783 21.4092 24.3101 23.0001 24.3101C24.0228 24.3101 24.9745 24.5658 25.8552 25.0771C26.7359 25.5885 27.4319 26.2987 27.9432 27.2078C28.4546 28.1169 28.7103 29.0828 28.7103 30.1056C28.7103 30.5601 28.483 30.7874 28.0285 30.7874H17.9717ZM23.0001 25.759C21.9205 25.759 20.983 26.0999 20.1876 26.7817C19.3921 27.4635 18.9092 28.3442 18.7387 29.4237H27.2614C27.2046 28.9124 27.0484 28.4294 26.7927 27.9749C26.537 27.5203 26.2245 27.1226 25.8552 26.7817C25.4859 26.4408 25.0455 26.1851 24.5342 26.0146C24.0228 25.8442 23.5114 25.759 23.0001 25.759ZM37.3182 42.2078C37.3182 42.2078 37.3182 42.3357 37.3182 42.5914C37.3182 42.847 37.0768 42.9749 36.5938 42.9749C36.1109 42.9749 35.8694 42.7192 35.8694 42.2078C35.8694 41.6965 36.1109 41.4408 36.5938 41.4408C37.0768 41.4408 37.3182 41.6965 37.3182 42.2078ZM33.5682 42.2078C33.5682 42.2078 33.5682 42.3357 33.5682 42.5914C33.5682 42.847 33.3126 42.9749 32.8012 42.9749C32.2898 42.9749 32.0342 42.7192 32.0342 42.2078C32.0342 41.6965 32.2898 41.4408 32.8012 41.4408C33.3126 41.4408 33.5682 41.6965 33.5682 42.2078ZM41.1535 42.2078C41.1535 42.2078 41.1535 42.3357 41.1535 42.5914C41.1535 42.847 40.912 42.9749 40.429 42.9749C39.9461 42.9749 39.7046 42.7192 39.7046 42.2078C39.7046 41.6965 39.9461 41.4408 40.429 41.4408C40.912 41.4408 41.1535 41.6965 41.1535 42.2078ZM44.1364 38.7135C44.591 38.7135 44.8182 38.9408 44.8182 39.3953V45.0203C44.8182 45.4749 44.591 45.7021 44.1364 45.7021H1.8637C1.40916 45.7021 1.18188 45.4749 1.18188 45.0203V39.3953C1.18188 38.9408 1.40916 38.7135 1.8637 38.7135H44.1364ZM2.54552 40.1624V44.3385H28.3694V40.1624H2.54552ZM43.4546 44.3385V40.1624H29.733V44.3385H43.4546Z" fill="white"/>
</g>
<defs>
<clipPath id="clip0_806_2903">
<rect width="45" height="45" fill="white" transform="matrix(1 0 0 -1 0.5 45.7874)"/>
</clipPath>
</defs>
</svg>
