<svg width="46" height="46" viewBox="0 0 46 46" fill="none" xmlns="http://www.w3.org/2000/svg">
<g id="Icon" clip-path="url(#clip0_806_2896)">
<path id="Vector" d="M38.5538 3.13113C38.5538 3.13113 38.7314 2.95357 39.0865 2.59845C39.4416 2.24334 40.1305 2.06578 41.1532 2.06578C42.176 2.06578 43.0424 2.4209 43.7527 3.13113C44.4629 3.84135 44.818 4.70783 44.818 5.73056C44.818 6.75328 44.4629 7.61976 43.7527 8.32999C43.0424 9.04021 42.176 9.39533 41.1532 9.39533C40.1305 9.39533 39.264 9.04021 38.5538 8.32999C37.8436 7.61976 37.4885 6.75328 37.4885 5.73056C37.4885 4.70783 37.8436 3.84135 38.5538 3.13113ZM41.1532 7.52033C41.3805 7.52033 41.6078 7.47771 41.835 7.39249C42.0623 7.30726 42.2612 7.17942 42.4316 7.00896C42.6021 6.83851 42.7299 6.63965 42.8152 6.41238C42.9004 6.1851 42.943 5.95783 42.943 5.73056C42.943 5.21919 42.7725 4.79306 42.4316 4.45215C42.0907 4.11124 41.6646 3.94078 41.1532 3.94078C40.6419 3.94078 40.2157 4.11124 39.8748 4.45215C39.5339 4.79306 39.3635 5.21919 39.3635 5.73056C39.3635 6.24192 39.5339 6.66806 39.8748 7.00896C40.2157 7.34988 40.6419 7.52033 41.1532 7.52033ZM2.24698 24.0118C2.24698 24.0118 2.42454 23.8343 2.77965 23.4791C3.13477 23.124 3.82369 22.9465 4.84641 22.9465C5.86914 22.9465 6.73562 23.3016 7.44585 24.0118C8.15607 24.722 8.51119 25.5885 8.51119 26.6112C8.51119 27.634 8.15607 28.5004 7.44585 29.2107C6.73562 29.9209 5.86914 30.276 4.84641 30.276C3.82369 30.276 2.95721 29.9209 2.24698 29.2107C1.53675 28.5004 1.18164 27.634 1.18164 26.6112C1.18164 25.5885 1.53675 24.722 2.24698 24.0118ZM3.568 27.8896C3.568 27.8896 3.65323 27.9749 3.82369 28.1453C3.99414 28.3158 4.33505 28.401 4.84641 28.401C5.35778 28.401 5.78391 28.2306 6.12482 27.8896C6.46573 27.5487 6.63619 27.1226 6.63619 26.6112C6.63619 26.0999 6.46573 25.6737 6.12482 25.3328C5.78391 24.9919 5.35778 24.8215 4.84641 24.8215C4.33505 24.8215 3.90891 24.9919 3.568 25.3328C3.2271 25.6737 3.05664 26.0999 3.05664 26.6112C3.05664 27.1226 3.2271 27.5487 3.568 27.8896ZM13.1561 13.1027C13.1561 13.1027 13.3336 12.9252 13.6887 12.57C14.0439 12.2149 14.7328 12.0374 15.7555 12.0374C16.7782 12.0374 17.6447 12.3925 18.3549 13.1027C19.0652 13.8129 19.4203 14.6794 19.4203 15.7021C19.4203 16.7249 19.0652 17.5914 18.3549 18.3016C17.6447 19.0118 16.7782 19.3669 15.7555 19.3669C14.7328 19.3669 13.8663 19.0118 13.1561 18.3016C12.4458 17.5914 12.0907 16.7249 12.0907 15.7021C12.0907 14.6794 12.4458 13.8129 13.1561 13.1027ZM15.7555 17.4919C16.21 17.4919 16.622 17.3215 16.9913 16.9806C17.3606 16.6396 17.5453 16.2277 17.5453 15.7448C17.5453 15.2618 17.3606 14.8357 16.9913 14.4664C16.622 14.097 16.1958 13.9124 15.7129 13.9124C15.2299 13.9124 14.818 14.097 14.4771 14.4664C14.1362 14.8357 13.9657 15.2476 13.9657 15.7021C13.9657 15.9294 13.9941 16.1283 14.051 16.2987C14.1078 16.4692 14.193 16.6254 14.3066 16.7675C14.4203 16.9095 14.5481 17.0374 14.6902 17.151C14.8322 17.2646 14.9885 17.3499 15.1589 17.4067C15.3294 17.4635 15.5282 17.4919 15.7555 17.4919ZM20.8265 20.8584C20.8265 20.8584 21.0041 20.6808 21.3592 20.3257C21.7143 19.9706 22.4032 19.7931 23.426 19.7931C24.4487 19.7931 25.3152 20.1482 26.0254 20.8584C26.7356 21.5686 27.0907 22.4351 27.0907 23.4578C27.0907 24.4806 26.7356 25.347 26.0254 26.0573C25.3152 26.7675 24.4487 27.1226 23.426 27.1226C22.9714 27.1226 22.5169 27.0232 22.0623 26.8243C21.6078 26.6254 21.2101 26.3556 20.8691 26.0146C20.5282 25.6737 20.2583 25.276 20.0595 24.8215C19.8606 24.3669 19.7612 23.9124 19.7612 23.4578C19.7612 22.4351 20.1163 21.5686 20.8265 20.8584ZM22.1902 24.6936C22.1902 24.6936 22.2825 24.786 22.4672 24.9706C22.6518 25.1553 22.9856 25.2476 23.4686 25.2476C23.9515 25.2476 24.3635 25.0629 24.7044 24.6936C25.0453 24.3243 25.2157 23.8982 25.2157 23.4152C25.2157 22.9323 25.0453 22.5203 24.7044 22.1794C24.3635 21.8385 23.9515 21.6681 23.4686 21.6681C22.9856 21.6681 22.5595 21.8385 22.1902 22.1794C21.8208 22.5203 21.6362 22.9323 21.6362 23.4152C21.6362 23.8982 21.8208 24.3243 22.1902 24.6936ZM26.068 22.1794L24.7044 20.8158L38.5112 7.00896L39.8748 8.28738L26.068 22.1794ZM20.8691 22.1794L17.0339 18.3442L18.3123 16.9806L22.2328 20.8158L20.8691 22.1794ZM7.40323 25.3328L6.12482 23.9692L13.1135 16.9806L14.4771 18.3442L7.40323 25.3328ZM1.18164 45.7021V43.8271H44.818V45.7021H1.18164ZM40.2157 44.7646V17.4919H42.0907V44.7646H40.2157ZM22.9998 44.7646V31.1283H24.8748V44.7646H22.9998ZM3.90891 44.7646V33.8556H5.78391V44.7646H3.90891ZM14.818 44.7646V25.6737H16.693V44.7646H14.818Z" fill="white"/>
</g>
<defs>
<clipPath id="clip0_806_2896">
<rect width="45" height="45" fill="white" transform="matrix(1 0 0 -1 0.5 45.7874)"/>
</clipPath>
</defs>
</svg>
