<svg width="46" height="46" viewBox="0 0 46 46" fill="none" xmlns="http://www.w3.org/2000/svg">
<g id="Icon" clip-path="url(#clip0_806_2883)">
<path id="Vector" d="M40.7273 23.2021C41.466 23.2021 42.1052 23.472 42.645 24.0117C43.1847 24.5515 43.4546 25.1907 43.4546 25.9294V42.293C43.4546 43.0316 43.1847 43.6708 42.645 44.2106C42.1052 44.7504 41.466 45.0203 40.7273 45.0203H3.90916C3.17052 45.0203 2.53132 44.7504 1.99154 44.2106C1.45177 43.6708 1.18188 43.0316 1.18188 42.293V25.9294C1.18188 25.1907 1.45177 24.5515 1.99154 24.0117C2.53132 23.472 3.17052 23.2021 3.90916 23.2021H28.4546V20.4748C28.4546 19.3953 28.7387 18.4294 29.3069 17.5771C29.8751 16.7248 30.6137 16.0714 31.5228 15.6169C30.3864 14.7646 29.8182 13.6566 29.8182 12.293C29.8182 11.1566 30.216 10.1907 31.0114 9.39526C31.8069 8.59981 32.7728 8.20208 33.9092 8.20208C35.0455 8.20208 36.0114 8.59981 36.8069 9.39526C37.6023 10.1907 38.0001 11.1566 38.0001 12.293C38.0001 13.6566 37.4319 14.7646 36.2955 15.6169C37.2046 16.0714 37.9432 16.7248 38.5114 17.5771C39.0796 18.4294 39.3637 19.3953 39.3637 20.4748V23.2021H40.7273ZM31.9915 10.3754C31.9915 10.3754 31.8566 10.5103 31.5867 10.7802C31.3168 11.0501 31.1819 11.5544 31.1819 12.293C31.1819 13.0316 31.4518 13.6708 31.9915 14.2106C32.5313 14.7504 33.1705 15.0203 33.9092 15.0203C34.6478 15.0203 35.287 14.7504 35.8268 14.2106C36.3665 13.6708 36.6364 13.0316 36.6364 12.293C36.6364 11.5544 36.3665 10.9151 35.8268 10.3754C35.287 9.83561 34.6478 9.56572 33.9092 9.56572C33.1705 9.56572 32.5313 9.83561 31.9915 10.3754ZM29.8182 20.4748V23.2021H38.0001V20.4748C38.0001 19.3384 37.6023 18.3725 36.8069 17.5771C36.0114 16.7816 35.0455 16.3839 33.9092 16.3839C32.7728 16.3839 31.8069 16.7816 31.0114 17.5771C30.216 18.3725 29.8182 19.3384 29.8182 20.4748ZM42.091 42.293V25.9294C42.091 25.5316 41.9631 25.2049 41.7075 24.9492C41.4518 24.6936 41.1251 24.5657 40.7273 24.5657H38.6819H29.1364H3.90916C3.51143 24.5657 3.18473 24.6936 2.92904 24.9492C2.67336 25.2049 2.54552 25.5316 2.54552 25.9294V42.293C2.54552 42.6907 2.67336 43.0174 2.92904 43.2731C3.18473 43.5288 3.51143 43.6566 3.90916 43.6566H40.7273C41.1251 43.6566 41.4518 43.5288 41.7075 43.2731C41.9631 43.0174 42.091 42.6907 42.091 42.293ZM34.591 25.9294C35.1592 25.9294 35.6421 26.1282 36.0398 26.5259C36.4376 26.9237 36.6364 27.4066 36.6364 27.9748V40.2475C36.6364 40.8157 36.4376 41.2987 36.0398 41.6964C35.6421 42.0941 35.1592 42.293 34.591 42.293H5.95461C5.38643 42.293 4.90348 42.0941 4.50575 41.6964C4.10802 41.2987 3.90916 40.8157 3.90916 40.2475V27.9748C3.90916 27.4066 4.10802 26.9237 4.50575 26.5259C4.90348 26.1282 5.38643 25.9294 5.95461 25.9294H34.591ZM35.2728 40.2475V27.9748C35.2728 27.5203 35.0455 27.293 34.591 27.293H5.95461C5.50007 27.293 5.27279 27.5203 5.27279 27.9748V40.2475C5.27279 40.7021 5.50007 40.9294 5.95461 40.9294H34.591C35.0455 40.9294 35.2728 40.7021 35.2728 40.2475ZM38.3836 35.0913C38.3836 35.0913 38.3197 35.0274 38.1918 34.8995C38.064 34.7717 38.0001 34.5089 38.0001 34.1112C38.0001 33.7134 38.1279 33.3867 38.3836 33.1311C38.6393 32.8754 38.966 32.7475 39.3637 32.7475C39.7614 32.7475 40.0881 32.8754 40.3438 33.1311C40.5995 33.3867 40.7273 33.7134 40.7273 34.1112C40.7273 34.5089 40.5995 34.8356 40.3438 35.0913C40.0881 35.347 39.7614 35.4748 39.3637 35.4748C38.966 35.4748 38.6393 35.347 38.3836 35.0913ZM7.31825 17.7475C6.75007 17.7475 6.26711 17.5487 5.86938 17.1509C5.47166 16.7532 5.27279 16.2703 5.27279 15.7021V4.79299C5.27279 4.22481 5.47166 3.74186 5.86938 3.34413C6.26711 2.9464 6.75007 2.74754 7.31825 2.74754H22.3182C22.8864 2.74754 23.3694 2.9464 23.7671 3.34413C24.1648 3.74186 24.3637 4.22481 24.3637 4.79299V9.31004L28.2842 13.1453C28.4546 13.3725 28.483 13.6282 28.3694 13.9123C28.2557 14.1964 28.0569 14.3384 27.7728 14.3384H24.3637V15.7021C24.3637 16.2703 24.1648 16.7532 23.7671 17.1509C23.3694 17.5487 22.8864 17.7475 22.3182 17.7475H7.31825ZM6.63643 4.79299V15.7021C6.63643 16.1566 6.8637 16.3839 7.31825 16.3839H22.3182C22.7728 16.3839 23.0001 16.1566 23.0001 15.7021V13.6566C23.0001 13.2021 23.2273 12.9748 23.6819 12.9748H26.1535L23.1705 10.0771C23.0569 9.90663 23.0001 9.73617 23.0001 9.56572V4.79299C23.0001 4.33844 22.7728 4.11117 22.3182 4.11117H7.31825C6.8637 4.11117 6.63643 4.33844 6.63643 4.79299ZM8.68188 9.56572C8.22734 9.56572 8.00007 9.33844 8.00007 8.8839V6.15663C8.00007 5.70208 8.22734 5.47481 8.68188 5.47481H20.9546C21.4092 5.47481 21.6364 5.70208 21.6364 6.15663V8.8839C21.6364 9.33844 21.4092 9.56572 20.9546 9.56572H8.68188ZM9.3637 6.83844V8.20208H20.2728V6.83844H9.3637ZM8.00007 12.293V10.9294H14.8182V12.293H8.00007ZM8.00007 15.0203V13.6566H21.6364V15.0203H8.00007ZM8.25575 30.2759C8.25575 30.2759 8.52563 30.0061 9.06541 29.4663C9.60518 28.9265 10.6137 28.6566 12.091 28.6566C13.5682 28.6566 14.8467 29.1964 15.9262 30.2759C17.0057 31.3555 17.5455 32.6339 17.5455 34.1112C17.5455 35.5884 17.0057 36.8669 15.9262 37.9464C14.8467 39.0259 13.5682 39.5657 12.091 39.5657C10.6137 39.5657 9.33529 39.0259 8.25575 37.9464C7.1762 36.8669 6.63643 35.5884 6.63643 34.1112C6.63643 32.6339 7.1762 31.3555 8.25575 30.2759ZM8.00007 34.1112C8.00007 35.2475 8.39779 36.2134 9.19325 37.0089C9.9887 37.8044 10.9546 38.2021 12.091 38.2021C12.9432 38.2021 13.7387 37.9464 14.4773 37.435L11.5796 34.6225C11.466 34.4521 11.4092 34.2816 11.4092 34.1112V30.1055C10.4432 30.2759 9.63359 30.7305 8.98018 31.4691C8.32677 32.2078 8.00007 33.0884 8.00007 34.1112ZM15.4148 36.4975C15.9262 35.7589 16.1819 34.9634 16.1819 34.1112C16.1819 33.0884 15.8552 32.2078 15.2018 31.4691C14.5484 30.7305 13.7387 30.2759 12.7728 30.1055V33.8555L15.4148 36.4975ZM32.5455 36.1566V38.2021H33.9092V39.5657H31.8637H29.1364H26.4092H23.6819H20.9546H18.9092V38.2021H20.2728V29.3384C20.2728 28.8839 20.5001 28.6566 20.9546 28.6566H23.6819C24.1364 28.6566 24.3637 28.8839 24.3637 29.3384V31.3839H26.4092C26.8637 31.3839 27.091 31.6112 27.091 32.0657V34.1112H29.1364C29.591 34.1112 29.8182 34.3384 29.8182 34.793V35.4748H31.8637C32.3182 35.4748 32.5455 35.7021 32.5455 36.1566ZM21.6364 30.0203V38.2021H23.0001V32.0657V30.0203H21.6364ZM24.3637 32.7475V38.2021H25.7273V34.793V32.7475H24.3637ZM27.091 35.4748V38.2021H28.4546V36.1566V35.4748H27.091ZM29.8182 38.2021H31.1819V36.8384H29.8182V38.2021Z" fill="white"/>
</g>
<defs>
<clipPath id="clip0_806_2883">
<rect width="45" height="45" fill="white" transform="matrix(1 0 0 -1 0.5 45.7874)"/>
</clipPath>
</defs>
</svg>
