<svg width="25" height="26" viewBox="0 0 25 26" fill="none" xmlns="http://www.w3.org/2000/svg">
<g id="Layer_1">
<path id="Vector" d="M16.396 4.25928H8.60401C5.68301 4.25928 3.31201 6.63028 3.31201 9.53228V17.3783C3.31201 20.2643 5.68301 22.6343 8.60401 22.6343H16.395C19.317 22.6343 21.687 20.2643 21.687 17.3603V9.53328C21.688 6.63028 19.317 4.25928 16.396 4.25928ZM7.72201 13.4473C7.72201 10.8073 9.86401 8.66928 12.5 8.66928C15.136 8.66928 17.277 10.8073 17.277 13.4473C17.277 16.0873 15.135 18.2243 12.5 18.2243C9.86401 18.2243 7.72201 16.0873 7.72201 13.4473ZM17.756 9.12928C17.141 9.12928 16.652 8.64228 16.652 8.02728C16.652 7.41228 17.14 6.92428 17.756 6.92428C18.37 6.92428 18.858 7.41228 18.858 8.02728C18.858 8.64228 18.37 9.12928 17.756 9.12928Z" fill="#0D6A60"/>
<path id="Vector_2" d="M12.5 10.3232C10.769 10.3232 9.37598 11.7212 9.37598 13.4472C9.37598 15.1722 10.769 16.5712 12.5 16.5712C14.232 16.5712 15.624 15.1722 15.624 13.4472C15.624 11.7222 14.211 10.3232 12.5 10.3232Z" fill="#0D6A60"/>
</g>
</svg>
