<svg width="38" height="39" viewBox="0 0 38 39" fill="none" xmlns="http://www.w3.org/2000/svg">
<rect width="38" height="39" fill="#E5E5E5"/>
<rect width="1920" height="7256.54" transform="translate(-1512 -28)" fill="white"/>
<g clip-path="url(#clip0_1479_2)">
<rect width="1920" height="744.007" transform="translate(-1512 -28)" fill="#F3FFFD"/>
<g clip-path="url(#clip1_1479_2)">
<path d="M0 19.0057C0 29.4992 8.50659 38.0057 19 38.0057C29.4934 38.0057 38 29.4992 38 19.0057C38 8.51233 29.4934 0.00574493 19 0.00574493C8.50659 0.00574493 0 8.51233 0 19.0057Z" fill="#0088CC"/>
<path d="M9.61865 18.6593C14.7189 16.4372 18.1199 14.9723 19.8216 14.2645C24.6802 12.2436 25.6898 11.8926 26.3479 11.8809C26.4926 11.8784 26.8162 11.9143 27.0258 12.0844C27.2028 12.228 27.2515 12.422 27.2748 12.5582C27.2981 12.6944 27.3271 13.0045 27.3041 13.2469C27.0408 16.0134 25.9015 22.7268 25.3219 25.8252C25.0767 27.1363 24.5938 27.5759 24.1263 27.6189C23.1103 27.7124 22.3388 26.9475 21.3547 26.3024C19.8149 25.2931 18.945 24.6647 17.4503 23.6798C15.723 22.5415 16.8428 21.9158 17.8272 20.8934C18.0848 20.6258 22.5613 16.5541 22.6479 16.1847C22.6588 16.1385 22.6688 15.9663 22.5665 15.8754C22.4642 15.7845 22.3132 15.8156 22.2043 15.8403C22.0498 15.8754 19.59 17.5013 14.8246 20.718C14.1264 21.1975 13.494 21.4311 12.9273 21.4188C12.3026 21.4053 11.101 21.0656 10.2077 20.7753C9.11208 20.4191 8.24128 20.2308 8.3171 19.6259C8.3566 19.3109 8.79045 18.9887 9.61865 18.6593Z" fill="white"/>
</g>
</g>
<defs>
<clipPath id="clip0_1479_2">
<rect width="1920" height="744.007" fill="white" transform="translate(-1512 -28)"/>
</clipPath>
<clipPath id="clip1_1479_2">
<rect x="-1142" y="-28" width="1180" height="94.0115" fill="white"/>
</clipPath>
</defs>
</svg>
