<svg width="38" height="39" viewBox="0 0 38 39" fill="none" xmlns="http://www.w3.org/2000/svg">
<rect width="38" height="39" fill="#E5E5E5"/>
<rect width="1920" height="7256.54" transform="translate(-1454 -28)" fill="white"/>
<g clip-path="url(#clip0_1479_2)">
<rect width="1920" height="744.007" transform="translate(-1454 -28)" fill="#F3FFFD"/>
<g clip-path="url(#clip1_1479_2)">
<path d="M0 19.0057C0 29.4992 8.50659 38.0057 19 38.0057C29.4934 38.0057 38 29.4992 38 19.0057C38 8.51233 29.4934 0.00574493 19 0.00574493C8.50659 0.00574493 0 8.51233 0 19.0057Z" fill="#0D6A60"/>
<path fill-rule="evenodd" clip-rule="evenodd" d="M26.4813 11.3909C24.4774 9.387 21.8055 8.31824 19 8.31824C13.1219 8.31824 8.3125 13.1276 8.3125 19.0057C8.3125 20.8761 8.84688 22.7464 9.78204 24.3495L8.3125 29.6932L13.9235 28.2237C15.5266 29.0253 17.2633 29.5597 19 29.5597C24.8781 29.5597 29.6875 24.7503 29.6875 18.8722C29.6875 16.0667 28.4852 13.3948 26.4813 11.3909ZM19 27.8229C17.3969 27.8229 15.7938 27.4222 14.4578 26.6206L14.1906 26.487L10.8508 27.4221L11.7859 24.2159L11.5187 23.8151C10.5836 22.3456 10.1828 20.7425 10.1828 19.1393C10.1828 14.33 14.1906 10.3222 19 10.3222C21.4047 10.3222 23.5422 11.2573 25.2789 12.8604C27.0156 14.5972 27.8172 16.7347 27.8172 19.1393C27.8172 23.8151 23.943 27.8229 19 27.8229ZM23.8094 21.1432C23.5422 21.0097 22.2063 20.3417 21.9391 20.3417C21.6719 20.2081 21.5383 20.2081 21.4047 20.4753C21.2711 20.7425 20.7367 21.2768 20.6031 21.544C20.4695 21.6776 20.3359 21.6776 20.0687 21.6776C19.8015 21.544 19 21.2768 17.9313 20.3417C17.1297 19.6737 16.5953 18.7386 16.4617 18.4714C16.3281 18.2042 16.4617 18.0706 16.5953 17.937C16.7289 17.8034 16.8625 17.6698 16.9961 17.5362C17.1297 17.4026 17.1297 17.269 17.2633 17.1354C17.3969 17.0018 17.2633 16.8682 17.2633 16.7347C17.2633 16.6011 16.7289 15.2651 16.4617 14.7307C16.3281 14.33 16.061 14.33 15.9274 14.33C15.7938 14.33 15.6601 14.33 15.393 14.33C15.2594 14.33 14.9922 14.33 14.725 14.5972C14.4578 14.8643 13.7899 15.5323 13.7899 16.8682C13.7899 18.2042 14.725 19.4065 14.8586 19.6737C14.9922 19.8073 16.7289 22.6128 19.4008 23.6815C21.6719 24.6167 22.0727 24.3495 22.607 24.3495C23.1414 24.3495 24.2102 23.6815 24.3438 23.1472C24.6109 22.4792 24.6109 21.9448 24.4774 21.9448C24.3438 21.2768 24.0766 21.2768 23.8094 21.1432Z" fill="white"/>
</g>
</g>
<defs>
<clipPath id="clip0_1479_2">
<rect width="1920" height="744.007" fill="white" transform="translate(-1454 -28)"/>
</clipPath>
<clipPath id="clip1_1479_2">
<rect x="-1084" y="-28" width="1180" height="94.0115" fill="white"/>
</clipPath>
</defs>
</svg>
